<?xml version="1.0" standalone="no"?>
<!DOCTYPE svg PUBLIC "-//W3C//DTD SVG 20010904//EN"
 "http://www.w3.org/TR/2001/REC-SVG-20010904/DTD/svg10.dtd">
<svg version="1.0" xmlns="http://www.w3.org/2000/svg"
 width="1200.000000pt" height="1200.000000pt" viewBox="0 0 1200.000000 1200.000000"
 preserveAspectRatio="xMidYMid meet">

<g transform="translate(0.000000,1200.000000) scale(0.100000,-0.100000)"
fill="#000000" stroke="none">
<path d="M0 6000 l0 -6000 6000 0 6000 0 0 6000 0 6000 -6000 0 -6000 0 0
-6000z m6315 3369 c450 -40 944 -196 1335 -424 290 -167 481 -315 721 -554
179 -179 277 -297 406 -486 84 -125 223 -362 223 -381 0 -11 -77 -51 -83 -43
-2 2 -29 51 -61 109 -310 565 -793 1036 -1355 1324 -194 99 -284 137 -472 201
-1047 356 -2226 146 -3086 -548 -69 -56 -136 -110 -149 -120 -21 -17 -23 -16
-48 14 -14 17 -26 34 -26 39 0 22 240 213 408 324 645 427 1397 615 2187 545z
m-87 -404 c723 -50 1466 -415 1953 -960 406 -455 648 -966 740 -1565 20 -125
23 -185 23 -430 0 -247 -3 -304 -22 -429 -140 -893 -649 -1652 -1422 -2119
-347 -210 -763 -348 -1195 -397 -180 -21 -533 -16 -715 10 -650 91 -1234 380
-1693 838 -776 773 -1061 1897 -748 2954 199 673 635 1249 1244 1644 123 80
394 216 543 272 204 77 382 123 659 167 149 24 411 30 633 15z m-2870 -977 c8
-10 -1 -29 -37 -78 -319 -440 -529 -991 -592 -1560 -18 -160 -16 -543 4 -706
94 -762 415 -1424 947 -1954 164 -163 306 -279 500 -409 147 -98 397 -231 548
-292 90 -36 89 -34 62 -103 l-9 -25 -97 40 c-516 215 -980 567 -1337 1013
-395 496 -645 1107 -712 1740 -18 172 -20 520 -5 676 59 590 257 1128 590
1608 l71 103 28 -20 c15 -11 33 -26 39 -33z m5906 -1173 c31 -132 61 -302 78
-445 20 -159 16 -603 -6 -765 -35 -263 -95 -511 -181 -750 -60 -168 -222 -497
-319 -649 -437 -680 -1073 -1167 -1848 -1414 -455 -146 -1028 -189 -1506 -115
l-104 16 7 46 c4 25 8 47 9 48 1 2 67 -7 147 -19 122 -18 190 -22 449 -22 325
-1 396 5 664 60 603 122 1161 419 1613 858 494 479 811 1071 942 1757 82 430
63 984 -49 1409 -10 41 -16 78 -12 82 11 11 76 26 83 19 4 -3 18 -55 33 -116z"/>
<path d="M5800 8874 c-275 -25 -484 -66 -705 -138 -435 -144 -812 -376 -1134
-697 -312 -312 -562 -713 -691 -1111 -291 -892 -149 -1835 390 -2588 363 -507
900 -892 1490 -1069 146 -44 312 -81 455 -103 142 -21 639 -18 785 5 594 93
1107 335 1525 720 286 263 474 515 645 862 154 314 241 612 280 965 14 122 14
458 0 580 -54 491 -217 936 -488 1330 -147 215 -367 454 -562 612 -417 337
-940 556 -1470 618 -100 11 -444 21 -520 14z m787 -1038 c16 -13 39 -47 53
-75 l23 -51 49 0 c95 0 175 -70 185 -163 9 -77 -45 -137 -124 -137 l-28 0
-102 -680 c-74 -496 -107 -691 -121 -718 -10 -20 -38 -50 -61 -67 l-43 -30
-418 0 -418 0 -43 30 c-23 17 -51 47 -61 67 -14 27 -47 222 -121 718 l-102
680 -28 0 c-79 0 -133 60 -124 137 10 93 90 163 185 163 l49 0 23 51 c14 28
37 62 53 75 l29 24 558 0 558 0 29 -24z m-2557 -2661 c19 -18 20 -17 20 3 0
18 6 22 35 22 l35 0 0 -96 0 -95 -32 3 c-28 3 -33 8 -39 38 -9 42 -50 80 -88
80 -64 0 -101 -62 -101 -170 0 -75 16 -125 47 -150 49 -39 110 -20 144 45 21
40 24 42 48 32 14 -6 27 -12 29 -13 7 -4 -31 -81 -51 -102 -74 -80 -191 -67
-254 26 -73 109 -43 323 54 380 46 27 121 26 153 -3z m980 -10 c0 -35 -1 -35
-43 -35 -48 0 -72 -14 -82 -47 -6 -22 -4 -23 59 -23 l66 0 0 -35 0 -35 -65 0
-65 0 0 -95 0 -95 40 0 c39 0 40 -1 40 -35 l0 -36 -112 3 -113 3 -1 33 c-1 31
0 32 37 32 l39 0 0 94 0 95 -37 3 c-35 3 -38 5 -39 36 -1 31 0 32 37 32 33 0
39 3 39 20 0 30 25 75 52 92 30 20 52 25 106 27 42 1 42 1 42 -34z m450 0 c0
-35 -1 -35 -43 -35 -48 0 -72 -14 -82 -47 -6 -22 -4 -23 59 -23 l66 0 0 -35 0
-35 -65 0 -65 0 0 -95 0 -95 40 0 c39 0 40 -1 40 -35 l0 -36 -112 3 -113 3 -1
33 c-1 31 0 32 37 32 l39 0 0 94 0 95 -37 3 c-35 3 -38 5 -39 36 -1 31 0 32
37 32 33 0 39 3 39 20 0 30 25 75 52 92 30 20 52 25 106 27 42 1 42 1 42 -34z
m1240 10 c19 -18 20 -17 20 3 0 18 6 22 35 22 l35 0 0 -96 0 -95 -32 3 c-28 3
-33 8 -39 38 -9 42 -50 80 -88 80 -64 0 -101 -62 -101 -170 0 -75 16 -125 47
-150 49 -39 110 -20 144 45 21 40 24 42 48 32 14 -6 27 -12 29 -13 7 -4 -31
-81 -51 -102 -74 -80 -191 -67 -254 26 -73 109 -43 323 54 380 46 27 121 26
153 -3z m980 -210 l0 -235 -40 0 c-30 0 -40 4 -40 16 0 13 -5 12 -26 -5 -57
-45 -152 -15 -191 59 -78 148 52 325 187 255 l30 -16 0 46 c0 43 -1 45 -30 45
-28 0 -30 3 -30 35 l0 35 70 0 70 0 0 -235z m-3190 83 c64 -33 92 -84 88 -163
-4 -72 -31 -116 -88 -145 -79 -40 -188 -13 -232 58 -32 51 -32 142 0 194 45
73 149 98 232 56z m1335 -1 c44 -25 79 -79 89 -139 l7 -38 -141 0 c-81 0 -140
-4 -140 -9 0 -6 10 -22 23 -36 31 -37 97 -44 151 -16 l39 21 16 -23 c23 -32
21 -38 -28 -64 -138 -73 -299 33 -276 183 7 51 52 109 100 130 47 21 114 17
160 -9z m450 0 c44 -25 79 -79 89 -139 l7 -38 -141 0 c-81 0 -140 -4 -140 -9
0 -6 10 -22 23 -36 31 -37 97 -44 151 -16 l39 21 16 -23 c23 -32 21 -38 -28
-64 -138 -73 -299 33 -276 183 7 51 52 109 100 130 47 21 114 17 160 -9z m885
1 c64 -33 92 -84 88 -163 -4 -72 -31 -116 -88 -145 -79 -40 -188 -13 -232 58
-32 51 -32 142 0 194 45 73 149 98 232 56z m895 -1 c44 -25 79 -79 89 -139 l7
-38 -141 0 c-81 0 -140 -4 -140 -9 0 -6 10 -22 23 -36 31 -37 97 -44 151 -16
l39 21 16 -23 c23 -32 21 -38 -28 -64 -138 -73 -299 33 -276 183 7 51 52 109
100 130 47 21 114 17 160 -9z"/>
<path d="M5451 7764 c-44 -56 -69 -54 549 -54 618 0 593 -2 549 54 l-20 26
-529 0 -529 0 -20 -26z"/>
<path d="M5243 7625 c-41 -18 -65 -55 -61 -97 l3 -33 815 0 815 0 3 33 c4 43
-20 80 -63 98 -50 21 -1464 20 -1512 -1z"/>
<path d="M5336 7383 c3 -16 8 -48 12 -73 l8 -45 644 0 644 0 8 45 c4 25 9 57
12 73 l6 27 -670 0 -669 0 5 -27z"/>
<path d="M5370 7175 c0 -14 102 -706 115 -782 6 -32 8 -33 51 -33 44 0 45 1
40 28 -3 15 -33 191 -66 392 -33 201 -62 375 -65 388 -4 18 -12 22 -40 22 -25
0 -35 -4 -35 -15z"/>
<path d="M5524 7163 c3 -16 33 -192 66 -393 33 -201 62 -375 65 -387 l5 -23
425 0 424 0 6 33 c13 76 115 768 115 782 0 13 -63 15 -556 15 l-556 0 6 -27z
m599 -116 c29 -12 66 -40 95 -72 107 -117 109 -279 6 -394 -120 -134 -315
-140 -438 -13 -107 110 -114 284 -15 396 95 108 221 138 352 83z"/>
<path d="M5936 6990 c-54 -17 -107 -63 -133 -114 -35 -70 -31 -165 12 -225 44
-64 105 -96 185 -96 80 0 141 32 186 96 24 35 29 54 32 113 3 64 0 76 -27 123
-39 65 -98 103 -173 108 -29 3 -66 0 -82 -5z m114 -75 c31 -9 67 -41 86 -77
30 -59 9 -138 -50 -183 -95 -73 -236 2 -236 125 0 60 48 121 110 138 35 10 43
10 90 -3z"/>
<path d="M5504 6258 c35 -208 36 -213 60 -237 18 -18 39 -25 78 -29 51 -4 56
-2 90 32 l36 36 232 0 232 0 35 -35 c28 -28 43 -35 73 -35 104 0 119 25 154
258 l6 42 -500 0 -501 0 5 -32z"/>
<path d="M7484 4988 c-65 -31 -63 -157 3 -187 33 -15 65 -14 91 5 19 13 22 24
22 89 0 65 -3 76 -22 89 -25 18 -63 20 -94 4z"/>
<path d="M4364 4990 c-34 -13 -54 -50 -54 -97 0 -56 31 -92 86 -100 36 -5 46
-1 74 24 28 25 33 37 34 77 1 42 -3 51 -32 77 -33 30 -67 36 -108 19z"/>
<path d="M5679 4985 c-15 -8 -29 -21 -33 -30 -5 -13 8 -15 89 -15 52 0 95 4
95 8 0 38 -104 64 -151 37z"/>
<path d="M6129 4985 c-15 -8 -29 -21 -33 -30 -5 -13 8 -15 89 -15 52 0 95 4
95 8 0 38 -104 64 -151 37z"/>
<path d="M7034 4990 c-34 -13 -54 -50 -54 -97 0 -56 31 -92 86 -100 36 -5 46
-1 74 24 28 25 33 37 34 77 1 42 -3 51 -32 77 -33 30 -67 36 -108 19z"/>
<path d="M7909 4985 c-15 -8 -29 -21 -33 -30 -5 -13 8 -15 89 -15 52 0 95 4
95 8 0 38 -104 64 -151 37z"/>
</g>
</svg>
